PathFileType	4	(X/Y/Z)	C:\Git\research_data\torsion_deformities_healthy_kinematics\simulations\P03\pre\Static01\markers.trc
DataRate	CameraRate	NumFrames	NumMarkers	Units	OrigDataRate	OrigDataStartFrame	OrigNumFrames
150.000000	150.000000	4	104	mm	150.000000	37	150
Frame#	Time	LFHD			LBHD			RFHD			RBHD			C7			T10			CLAV			STRN			RBAK			LSHO			LUPA			LELB			LFRA			LWRB			LWRA			LFIN			RSHO			RUPA			RELB			RFRA			RWRB			RWRA			RFIN			SACR			LASI			RASI			LT1			LT2			LT3			LS1			LS2			LS3			LHEE			LTOE			RT1			RT2			RT3			RS1			RS2			RS3			RHEE			RTOE			LKNE			LKNM			LANK			LANM			RKNM			RKNE			RANM			RANK			SACO			SACA			SACL			SACP			LKJC			RKJC			LAJC			RAJC			LMMA			RMMA			LTHI			RTHI			LTIB			RTIB			funktRKJC			funktLKJC			funktRHIP			funktLHIP			LHJC			RHJC			LPelvisAngles			RPelvisAngles			LFootProgressAngles			RFootProgressAngles			LHipAngles			RHipAngles			LKneeAngles			RKneeAngles			LAnkleAngles			RAnkleAngles			LFFootAngles			RFFootAngles			LAbsAnkleAngle			RAbsAnkleAngle			RNeckAngles			LNeckAngles			RSpineAngles			LSpineAngles			LShoulderAngles			LElbowAngles			LWristAngles			RShoulderAngles			RElbowAngles			RWristAngles			RThoraxAngles			LThoraxAngles			RHeadAngles			LHeadAngles			LNormalisedGRF			RNormalisedGRF			LGroundReactionForce			RGroundReactionForce			LGRF			RGRF			
		X1	Y1	Z1	X2	Y2	Z2	X3	Y3	Z3	X4	Y4	Z4	X5	Y5	Z5	X6	Y6	Z6	X7	Y7	Z7	X8	Y8	Z8	X9	Y9	Z9	X10	Y10	Z10	X11	Y11	Z11	X12	Y12	Z12	X13	Y13	Z13	X14	Y14	Z14	X15	Y15	Z15	X16	Y16	Z16	X17	Y17	Z17	X18	Y18	Z18	X19	Y19	Z19	X20	Y20	Z20	X21	Y21	Z21	X22	Y22	Z22	X23	Y23	Z23	X24	Y24	Z24	X25	Y25	Z25	X26	Y26	Z26	X27	Y27	Z27	X28	Y28	Z28	X29	Y29	Z29	X30	Y30	Z30	X31	Y31	Z31	X32	Y32	Z32	X33	Y33	Z33	X34	Y34	Z34	X35	Y35	Z35	X36	Y36	Z36	X37	Y37	Z37	X38	Y38	Z38	X39	Y39	Z39	X40	Y40	Z40	X41	Y41	Z41	X42	Y42	Z42	X43	Y43	Z43	X44	Y44	Z44	X45	Y45	Z45	X46	Y46	Z46	X47	Y47	Z47	X48	Y48	Z48	X49	Y49	Z49	X50	Y50	Z50	X51	Y51	Z51	X52	Y52	Z52	X53	Y53	Z53	X54	Y54	Z54	X55	Y55	Z55	X56	Y56	Z56	X57	Y57	Z57	X58	Y58	Z58	X59	Y59	Z59	X60	Y60	Z60	X61	Y61	Z61	X62	Y62	Z62	X63	Y63	Z63	X64	Y64	Z64	X65	Y65	Z65	X66	Y66	Z66	X67	Y67	Z67	X68	Y68	Z68	X69	Y69	Z69	X70	Y70	Z70	X71	Y71	Z71	X72	Y72	Z72	X73	Y73	Z73	X74	Y74	Z74	X75	Y75	Z75	X76	Y76	Z76	X77	Y77	Z77	X78	Y78	Z78	X79	Y79	Z79	X80	Y80	Z80	X81	Y81	Z81	X82	Y82	Z82	X83	Y83	Z83	X84	Y84	Z84	X85	Y85	Z85	X86	Y86	Z86	X87	Y87	Z87	X88	Y88	Z88	X89	Y89	Z89	X90	Y90	Z90	X91	Y91	Z91	X92	Y92	Z92	X93	Y93	Z93	X94	Y94	Z94	X95	Y95	Z95	X96	Y96	Z96	X97	Y97	Z97	X98	Y98	Z98	X99	Y99	Z99	X100	Y100	Z100	X101	Y101	Z101	X102	Y102	Z102	X103	Y103	Z103	X104	Y104	Z104	

38	0.2466666666666667	382.9922790527342	1441.050048828125	-1131.821411132812	362.9796142578123	1420.826904296875	-992.8502807617188	498.963165283203	1441.815673828125	-1139.066162109375	511.8702087402342	1420.878173828125	-987.0325317382812	443.1506042480468	1274.475219726562	-963.6906127929688	445.1829223632811	1095.1884765625	-914.524658203125	427.1564636230468	1213.159912109375	-1094.669311523438	422.6018981933593	1160.300415039062	-1127.30712890625	542.186828613281	1177.685424804688	-933.2529296875	311.2173461914061	1263.148803710938	-1036.54541015625	218.3986968994139	1045.661254882812	-975.4920043945312	190.2879638671874	972.0210571289062	-965.7627563476562	146.4566650390624	889.4794311523438	-980.5992431640625	90.64493560791006	769.3889770507812	-1024.968383789062	124.8399124145507	775.6375732421875	-1082.920532226562	78.47843170166004	717.8494262695312	-1112.06787109375	559.412170410156	1252.028198242188	-1061.155029296875	649.5021972656248	1078.371948242188	-1053.065551757812	703.774963378906	959.8826293945312	-1031.777587890625	757.2499999999999	831.7699584960938	-1092.876831054688	777.5667114257811	751.7832641601562	-1105.286254882812	725.6994018554686	748.1130981445312	-1148.21875	771.7603149414061	701.7970581054688	-1189.863159179688	430.4170837402343	875.6781005859375	-916.281494140625	278.216827392578	870.7708740234375	-1071.89697265625	520.9281616210936	879.2377319335938	-1124.898193359375	243.9123229980468	586.1336669921875	-1127.99365234375	231.994155883789	474.4751281738281	-1079.067504882812	277.1954040527343	531.7084350585938	-1202.903686523438	282.7607727050781	217.1883087158203	-1033.18798828125	342.0524902343749	148.3159790039063	-950.3631591796875	254.4920959472656	131.8752136230469	-1062.4189453125	367.7147521972656	41.74505615234377	-973.6219482421875	262.3819580078124	41.36053466796876	-1083.31591796875	592.4302978515624	608.1618041992188	-1132.925170898438	586.6066894531249	510.3838500976563	-1055.876708984375	582.5183715820311	534.8176879882812	-1197.833129882812	587.3451538085936	266.8497314453126	-1088.626953125	562.3265380859374	217.0395812988282	-981.3507080078125	582.4454956054686	176.6959838867188	-1116.62646484375	500.2566833496093	44.95505142211917	-981.8302612304688	570.5956420898436	41.76421737670902	-1123.359985351562	268.7454528808593	432.9272766113281	-1147.940673828125	368.0666809082031	421.6177368164062	-1163.378662109375	304.6755065917968	49.61647033691408	-994.1820068359375	356.8990783691406	47.17643737792971	-1044.756225585938	466.1389770507812	424.6278381347657	-1164.300048828125	568.6929321289061	440.2111816406251	-1164.586181640625	490.7732849121093	52.90759658813479	-1062.673217773438	552.3251953124999	47.5931549072266	-1019.060974121094	424.3041381835936	875.6141357421875	-985.0455932617188	423.0675048828124	875.5836791992188	-990.7131958007812	418.6399536132811	875.4165649414062	-983.8086547851562	422.308868408203	933.5897827148438	-984.9219360351562	318.4060668945312	427.2724914550781	-1155.65966796875	517.4159545898436	432.4194946289063	-1164.443115234375	330.7872924804687	48.3964538574219	-1019.469116210938	521.5491943359374	50.25037765502933	-1040.867065429688	356.8990783691406	47.17643737792971	-1044.756225585938	490.7732849121093	52.90759658813479	-1062.673217773438	225.5530700683593	611.813232421875	-1084.938720703125	602.7076416015624	624.7470703125	-1117.390502929688	242.4695281982421	244.1237945556641	-1008.991455078125	613.6403198242186	243.8413238525391	-1039.301025390625	0	0	0	0	0	0	0	0	0	0	0	0	354.8917541503905	783.111328125	-1044.852905273438	468.316925048828	786.2435913085938	-1069.052612304688	-1.971304178237914	-12.31535148620605	-0.1220233589410781	1.971304178237914	12.31535148620605	-0.1220233589410783	13.136794090271	-43.83218002319336	0.1855801790952674	9.030456542968752	-26.42294120788574	1.319225430488586	-3.692876577377318	5.897121429443359	18.3918342590332	-8.747387886047363	-10.15432834625244	13.38426494598389	2.277256727218632	-34.06804656982422	37.68523788452148	7.112828731536869	-30.85867118835449	32.969970703125	1.261322855949403	-2.524183511734009	15.26276588439941	-0.4438335597515101	5.289585590362549	14.61481666564941	-4.82674016993043e-15	-2.955525949710627e-31	-1.739365878272248e-16	1.597731820977832e-14	9.783285802281872e-31	-4.174478213732521e-15	9.224893515875511e-16	0	15.06539440155029	8.890579244321393e-16	0	14.51941776275635	-0.4587618112564099	7.855627536773682	-12.13454151153564	0.4587618112564085	-7.855627536773682	-12.13454151153564	3.04681658744812	5.895233631134033	3.877965927124023	-3.046816587448119	-5.895233631134033	3.877965927124023	18.9760627746582	-11.60893249511719	-9.527063369750978	2.356924432208803e-15	-1.125916308970798e-12	38.49149703979492	-12.61855125427247	128.6183776855469	16.1566276550293	24.5674877166748	0.3325859308242813	-8.577301025390627	2.614595870451665e-15	2.467315197637876e-12	36.20679092407227	-0.07479885965586401	132.3336334228516	19.19993209838867	-0.6209172606468203	6.473828315734863	4.072421073913574	0.6209172606468207	-6.473828315734863	4.072421073913574	0.1317577064037329	-1.384968042373657	8.047508239746094	-0.1317577064037319	1.384968042373657	8.047508239746094	0	0	0	0	0	0	0	0	0	0	0	0	0	0	0	0	0	0	
39	0.2533333333333334	383.0496826171873	1441.01953125	-1131.875244140625	363.056182861328	1420.8203125	-992.8965454101562	499.0284729003905	1441.756225585938	-1139.13818359375	511.9397583007811	1420.829467773438	-987.09423828125	443.215606689453	1274.453002929688	-963.7592163085938	445.2375183105468	1095.19580078125	-914.5108032226562	427.2024841308593	1213.117065429688	-1094.678100585938	422.6435546874999	1160.242797851562	-1127.309326171875	542.2299804687498	1177.671752929688	-933.2473754882812	311.264190673828	1263.123168945312	-1036.590087890625	218.4257049560546	1045.66650390625	-975.4733276367188	190.3118743896483	972.0152587890625	-965.73046875	146.4824829101561	889.4874267578125	-980.5418090820312	90.66621398925771	769.3819580078125	-1024.865112304688	124.8628768920897	775.6231079101562	-1082.827392578125	78.49612426757801	717.8362426757812	-1111.960693359375	559.4559936523435	1251.979370117188	-1061.162719726562	649.5509033203123	1078.337524414062	-1053.052490234375	703.844299316406	959.8453979492188	-1031.786865234375	757.2995605468749	831.7332763671875	-1092.886962890625	777.6163940429686	751.7540893554688	-1105.28857421875	725.7482910156249	748.0899047851562	-1148.2548828125	771.8253173828124	701.7811279296875	-1189.906860351562	430.4988708496093	875.6387939453125	-916.2161865234375	278.2833862304686	870.7484741210938	-1071.817749023438	521.0014038085936	879.1908569335938	-1124.831420898438	243.9488830566405	586.1351928710938	-1127.9423828125	232.0112762451171	474.4713745117188	-1079.05224609375	277.2154846191405	531.71875	-1202.8642578125	282.7825927734374	217.1894683837891	-1033.176025390625	342.0720825195312	148.3055725097657	-950.3612060546875	254.5008239746093	131.8782653808594	-1062.408569335938	367.7208251953124	41.73718261718752	-973.6182861328125	262.3864440917968	41.37443923950197	-1083.318359375	592.4982299804686	608.135498046875	-1132.887084960938	586.6525878906249	510.3398132324219	-1055.842895507812	582.5753173828124	534.8090209960938	-1197.793334960938	587.3734741210936	266.8336486816407	-1088.63623046875	562.3701782226561	217.0116271972657	-981.371826171875	582.4672851562499	176.6798400878907	-1116.633911132812	500.2595825195312	44.952018737793	-981.8295288085938	570.5953979492186	41.760856628418	-1123.359497070312	268.7823181152343	432.9185180664062	-1147.888671875	368.0811157226562	421.6178588867188	-1163.383056640625	304.6868286132812	49.61383438110354	-994.1827392578125	356.9077758789062	47.17594146728518	-1044.761108398438	466.1887817382812	424.6239929199219	-1164.3076171875	568.7370605468749	440.1943969726563	-1164.575439453125	490.7737731933593	52.90041732788089	-1062.665649414062	552.3218383789061	47.5889930725098	-1019.049438476562	424.3791198730468	875.5760498046875	-984.9737548828125	423.1423034667968	875.5457153320312	-990.641357421875	418.7149658203124	875.3790283203125	-983.7366333007812	422.3895874023436	933.5519409179688	-984.8497924804688	318.4317016601562	427.2681884765625	-1155.635864257812	517.4628906249999	432.4092102050782	-1164.441528320312	330.7973022460937	48.39488983154299	-1019.471862792969	521.5477905273436	50.24470520019534	-1040.857543945312	356.9077758789062	47.17594146728518	-1044.761108398438	490.7737731933593	52.90041732788089	-1062.665649414062	225.6072540283202	611.7850341796875	-1084.82666015625	602.7589721679686	624.7118530273438	-1117.334716796875	242.4944610595702	244.1210632324219	-1008.978576660156	613.6566772460936	243.8256530761719	-1039.286987304688	0	0	0	0	0	0	0	0	0	0	0	0	354.9544677734374	783.080810546875	-1044.778686523438	468.3788757324218	786.2015380859375	-1068.9833984375	-1.965343832969665	-12.3178768157959	-0.1226151585578917	1.965343832969665	12.3178768157959	-0.122615158557892	13.14647197723389	-43.83467483520508	0.1723067760467521	9.025962829589846	-26.42120742797852	1.31670594215393	-3.690509557723998	5.865608692169189	18.39963340759277	-8.753997802734375	-10.16500854492188	13.39394378662109	2.259410619735722	-34.0433349609375	37.69180679321289	7.112200736999515	-30.85321426391602	32.98407745361328	1.261848449707032	-2.524568557739258	15.26761913299561	-0.4456146359443659	5.295555591583252	14.62180042266846	7.019583321253856e-16	1.590277359294755e-15	7.702905975627583e-16	-5.963540229704229e-16	-1.590277359294755e-15	3.975693398236888e-16	9.227111384939442e-16	0	15.069016456604	8.893187196727796e-16	0	14.52367687225342	-0.4471927583217633	7.854209423065186	-12.1495189666748	0.4471927583217619	-7.854209423065186	-12.1495189666748	3.047504663467407	5.891917705535889	3.9004807472229	-3.047504663467406	-5.891917705535889	3.9004807472229	18.97745323181152	-11.60251331329346	-9.51679039001465	1.561615470671058e-15	1.331062105154601e-12	38.48871612548828	-12.61587810516358	128.6091003417969	16.16649627685547	24.57920265197754	0.3362389206886306	-8.559340476989748	5.397950543687496e-15	-2.117454215438963e-12	36.21282196044922	-0.05137329176068999	132.3036804199219	19.20717239379883	-0.6245756149291994	6.480379104614258	4.094547748565674	0.6245756149291999	-6.480379104614258	4.094547748565674	0.1155612766742712	-1.380346298217773	8.040729522705078	-0.1155612766742702	1.380346298217773	8.040729522705078	0	0	0	0	0	0	0	0	0	0	0	0	0	0	0	0	0	0	
40	0.26	383.1091003417967	1440.986450195312	-1131.935424804688	363.1321716308592	1420.8173828125	-992.9489135742188	499.0979003906248	1441.694458007812	-1139.213989257812	512.0018920898435	1420.787109375	-987.1533813476562	443.2763671874999	1274.43408203125	-963.8233032226562	445.2925415039061	1095.205810546875	-914.4998168945312	427.2525939941405	1213.069213867188	-1094.692504882812	422.6874084472655	1160.177490234375	-1127.313842773438	542.2760620117185	1177.666259765625	-933.2462158203125	311.3140869140624	1263.095825195312	-1036.634521484375	218.4563446044921	1045.66845703125	-975.459228515625	190.3419952392577	972.009765625	-965.6914672851562	146.5032501220702	889.492431640625	-980.4818725585938	90.68037414550771	769.3736572265625	-1024.763793945312	124.875144958496	775.6119384765625	-1082.73486328125	78.49931335449207	717.8240966796875	-1111.850708007812	559.493713378906	1251.931396484375	-1061.172607421875	649.5996093749998	1078.306640625	-1053.05126953125	703.912902832031	959.8097534179688	-1031.797241210938	757.3518066406249	831.6993408203125	-1092.9228515625	777.6627807617186	751.7313232421875	-1105.302856445312	725.7904663085936	748.0648803710938	-1148.292724609375	771.8839111328124	701.769287109375	-1189.954345703125	430.5771179199218	875.593017578125	-916.1585083007812	278.3518981933593	870.7296752929688	-1071.74072265625	521.0810546874999	879.142578125	-1124.761474609375	243.9750671386718	586.1376953125	-1127.887573242188	232.0197448730468	474.4671630859375	-1079.027587890625	277.2234497070311	531.7254638671875	-1202.821411132812	282.7934265136718	217.1903839111328	-1033.162353515625	342.0844726562499	148.2965545654297	-950.359375	254.5052185058593	131.8789825439453	-1062.397705078125	367.7222900390624	41.73186874389651	-973.611572265625	262.3885803222656	41.38419342041017	-1083.32080078125	592.5687255859374	608.11376953125	-1132.840576171875	586.6951293945311	510.2995910644532	-1055.8046875	582.6370239257811	534.8026123046875	-1197.749633789062	587.4025878906249	266.8197937011719	-1088.639892578125	562.4032592773436	216.9898834228516	-981.3853149414062	582.4904174804686	176.6659240722657	-1116.636840820312	500.2616882324218	44.94898223876956	-981.8287353515625	570.5952148437499	41.75857543945316	-1123.3603515625	268.8274230957031	432.8955383300781	-1147.798828125	368.0898437499999	421.6158142089844	-1163.391357421875	304.6918029785156	49.61138534545901	-994.1828002929688	356.9129333496093	47.17631530761721	-1044.765991210938	466.2402343749999	424.6247558593751	-1164.306762695312	568.7860717773436	440.1822204589844	-1164.553955078125	490.7745971679687	52.89526367187503	-1062.660034179688	552.3187255859374	47.58501434326175	-1019.035461425781	424.4556274414061	875.5341186523438	-984.900634765625	423.2186889648436	875.5042724609375	-990.5681762695312	418.7914733886718	875.3378295898438	-983.6633911132812	422.4741821289061	933.51025390625	-984.773681640625	318.4586486816406	427.2556762695312	-1155.595092773438	517.5131835937499	432.4034729003907	-1164.430419921875	330.8023681640624	48.39384841918947	-1019.474365234375	521.5466918945311	50.24013900756839	-1040.847778320312	356.9129333496093	47.17631530761721	-1044.765991210938	490.7745971679687	52.89526367187503	-1062.660034179688	225.6673889160155	611.738037109375	-1084.660400390625	602.8098144531249	624.6777954101562	-1117.271850585938	242.5189208984374	244.1123962402344	-1008.961059570312	613.6720581054686	243.8119354248047	-1039.263549804688	0	0	0	0	0	0	0	0	0	0	0	0	355.0174560546874	783.0508422851562	-1044.70849609375	468.4417724609374	786.1575317382812	-1068.915405273438	-1.95772898197174	-12.31904792785645	-0.1252292990684508	1.95772898197174	12.31904792785645	-0.125229299068451	13.15203762054444	-43.83601760864258	0.1629856377840034	9.020292282104494	-26.41896057128906	1.314018249511718	-3.688024282455443	5.806560516357422	18.40158462524414	-8.761674880981445	-10.17555713653564	13.40011310577393	2.225535392761235	-33.99736022949219	37.69381713867188	7.111735343933109	-30.84921836853027	32.99558258056641	1.261730909347535	-2.52399468421936	15.26806831359863	-0.4482502639293665	5.304882526397705	14.62801933288574	2.696017144409213e-15	1.590277359294755e-15	9.19379090070474e-16	-4.050237538611627e-15	1.590277359294755e-15	2.480055218723592e-31	9.226668745458015e-16	0	15.06829357147217	8.895449446531289e-16	0	14.52737140655518	-0.4354256391525281	7.853695392608643	-12.1603832244873	0.4354256391525266	-7.853695392608643	-12.1603832244873	3.04584002494812	5.88921070098877	3.924318075180054	-3.045840024948119	-5.88921070098877	3.924318075180054	18.978515625	-11.6034984588623	-9.50900173187256	1.561590477307382e-15	-1.658659212581959e-12	38.48830795288086	-12.61363410949708	128.6005096435547	16.17215538024902	24.59104347229004	0.3438024520874038	-8.542044639587404	6.19358037328287e-15	-2.976999289444615e-12	36.22084045410156	-0.02678595297039248	132.2838897705078	19.21155738830566	-0.6275424361228945	6.484949588775635	4.115613460540771	0.627542436122895	-6.484949588775635	4.115613460540771	0.1003531962633139	-1.378457069396973	8.030866622924805	-0.1003531962633129	1.378457069396973	8.030866622924805	0	0	0	0	0	0	0	0	0	0	0	0	0	0	0	0	0	0	
41	0.2666666666666667	383.1701049804686	1440.952514648438	-1132.001831054688	363.2077026367186	1420.817626953125	-993.0086059570312	499.1698913574217	1441.633666992188	-1139.29541015625	512.0593261718748	1420.75244140625	-987.2118530273438	443.3326110839843	1274.420654296875	-963.8811645507812	445.3486022949218	1095.220092773438	-914.4912109375	427.3063049316405	1213.0185546875	-1094.711791992188	422.7349853515624	1160.106811523438	-1127.32177734375	542.3245849609373	1177.669555664062	-933.2521362304688	311.367218017578	1263.06787109375	-1036.6787109375	218.4913635253905	1045.667724609375	-975.4496459960938	190.3689422607421	972.0165405273438	-965.6361694335938	146.5199737548827	889.493896484375	-980.4174194335938	90.68491363525381	769.36962890625	-1024.66455078125	124.8794708251952	775.6026611328125	-1082.640991210938	78.49005889892567	717.8123779296875	-1111.738891601562	559.5270996093748	1251.887817382812	-1061.184204101562	649.648986816406	1078.279907226562	-1053.0595703125	703.9804077148435	959.7767333984375	-1031.809448242188	757.4071044921874	831.6705932617188	-1092.9765625	777.7145385742186	751.7092895507812	-1105.34423828125	725.8291015624999	748.0389404296875	-1148.330688476562	771.9326782226561	701.7595825195312	-1190.007690429688	430.6496582031249	875.5448608398438	-916.1065063476562	278.4199218749999	870.7156372070312	-1071.665283203125	521.1653442382811	879.0955810546875	-1124.688354492188	243.9921264648437	586.1414184570312	-1127.83056640625	232.0210876464843	474.4641723632812	-1078.994506835938	277.2210998535155	531.7304077148438	-1202.776000976562	282.7929077148437	217.1906890869141	-1033.148071289062	342.0890197753906	148.2891082763672	-950.3572387695312	254.5067291259765	131.8778076171875	-1062.389770507812	367.7199096679687	41.72998809814455	-973.6041259765625	262.3889160156249	41.3905487060547	-1083.32275390625	592.6411743164061	608.0968627929688	-1132.785522460938	586.7338867187499	510.2642517089844	-1055.76318359375	582.7063598632811	534.798828125	-1197.701904296875	587.4326782226561	266.8089599609376	-1088.638916015625	562.4281005859374	216.9745178222657	-981.3916625976562	582.5132446289061	176.6538848876953	-1116.635009765625	500.2630920410156	44.94618225097659	-981.8277587890625	570.5956420898436	41.75738906860355	-1123.362060546875	268.8525695800781	432.8844604492188	-1147.7255859375	368.0887451171874	421.6129760742188	-1163.386962890625	304.6908874511718	49.60993576049807	-994.183837890625	356.9150390624999	47.17740249633791	-1044.7705078125	466.2924499511718	424.6283874511719	-1164.297973632812	568.8400878906249	440.1745910644532	-1164.5224609375	490.7758178710937	52.89274597167972	-1062.65673828125	552.3168945312499	47.58139801025394	-1019.021301269531	424.5317077636718	875.4918212890625	-984.826416015625	423.2947387695311	875.4625244140625	-990.4939575195312	418.8675231933593	875.2963256835938	-983.5891723632812	422.5592041015624	933.46826171875	-984.6956176757812	318.4706420898437	427.2487182617188	-1155.556274414062	517.5662841796874	432.4014892578126	-1164.410278320312	330.8029785156249	48.39366912841799	-1019.477111816406	521.5463867187499	50.23707199096683	-1040.839111328125	356.9150390624999	47.17740249633791	-1044.7705078125	490.7758178710937	52.89274597167972	-1062.65673828125	225.7164306640624	611.7101440429688	-1084.529663085938	602.8604736328124	624.6463623046875	-1117.202514648438	242.5299682617187	244.1038055419922	-1008.9462890625	613.6878662109374	243.7992401123047	-1039.234497070312	0	0	0	0	0	0	0	0	0	0	0	0	355.0794372558593	783.0234375	-1044.640625	468.5042724609374	786.1144409179688	-1068.84716796875	-1.948945403099059	-12.31894683837891	-0.1292662471532821	1.948945403099059	12.31894683837891	-0.1292662471532823	13.15361881256104	-43.83668899536133	0.1573065072298042	9.013477325439455	-26.41672897338867	1.31152856349945	-3.687262296676635	5.76459789276123	18.40231323242188	-8.770188331604004	-10.18579387664795	13.40353393554688	2.206155300140385	-33.96238327026367	37.69579696655273	7.111543655395511	-30.84528732299805	33.00452423095703	1.261720061302186	-2.524250268936157	15.26713752746582	-0.4511749744415278	5.315468788146973	14.63292407989502	9.352197496786084e-15	-3.18055471858951e-15	-8.945309550462963e-16	-1.242404236579865e-16	1.590277359294755e-15	-1.987846699118444e-16	9.225541708255964e-16	0	15.0664529800415	8.897248034397774e-16	0	14.53030872344971	-0.42357036471367	7.853076457977295	-12.16719627380371	0.4235703647136686	-7.853076457977295	-12.16719627380371	3.041426420211792	5.887351989746094	3.948163032531738	-3.041426420211791	-5.887351989746094	3.948163032531738	18.9830322265625	-11.60097885131836	-9.507527351379396	2.357090509607979e-15	-2.372693838278983e-12	38.49420928955078	-12.60675048828126	128.5909271240234	16.1733570098877	24.60143852233887	0.351853877305986	-8.525243759155275	2.218453021030803e-15	3.657638021669143e-14	36.23008728027344	-0.00931715685874916	132.2818756103516	19.2127513885498	-0.6291031241416933	6.487304210662842	4.134859561920166	0.6291031241416938	-6.487304210662842	4.134859561920166	0.08677954226732311	-1.378364205360413	8.018746376037598	-0.08677954226732214	1.378364205360413	8.018746376037598	0	0	0	0	0	0	0	0	0	0	0	0	0	0	0	0	0	0	
